<mxfile host="Electron" agent="Mozilla/5.0 (Macintosh; Intel Mac OS X 10_15_7) AppleWebKit/537.36 (KHTML, like Gecko) draw.io/26.0.9 Chrome/128.0.6613.186 Electron/32.2.5 Safari/537.36" version="26.0.9">
  <diagram id="cIGD2LvE8X4N7-ZE1jUJ" name="ページ1">
    <mxGraphModel dx="1390" dy="1254" grid="1" gridSize="10" guides="1" tooltips="1" connect="1" arrows="1" fold="1" page="1" pageScale="1" pageWidth="960" pageHeight="530" background="#ffffff" math="1" shadow="0">
      <root>
        <mxCell id="0" />
        <mxCell id="1" parent="0" />
        <mxCell id="uE-nzZvg4eH-x8scrcuT-28" value="" style="rounded=0;whiteSpace=wrap;html=1;strokeColor=none;" vertex="1" parent="1">
          <mxGeometry x="8" y="10" width="942" height="510" as="geometry" />
        </mxCell>
        <mxCell id="uE-nzZvg4eH-x8scrcuT-27" value="" style="rounded=1;whiteSpace=wrap;html=1;fillColor=#dae8fc;strokeColor=none;arcSize=36;" vertex="1" parent="1">
          <mxGeometry x="649" y="178" width="172" height="55" as="geometry" />
        </mxCell>
        <mxCell id="uE-nzZvg4eH-x8scrcuT-5" value="`I=\int_{t_1}^{t_2} (P\dot{Q} - H(q,p) )dt`" style="text;html=1;align=center;verticalAlign=middle;whiteSpace=wrap;rounded=0;fontSize=24;" vertex="1" parent="1">
          <mxGeometry x="528" y="160" width="340" height="90" as="geometry" />
        </mxCell>
        <mxCell id="uE-nzZvg4eH-x8scrcuT-26" value="" style="rounded=1;whiteSpace=wrap;html=1;fillColor=#dae8fc;strokeColor=none;" vertex="1" parent="1">
          <mxGeometry x="640" y="63" width="111" height="70" as="geometry" />
        </mxCell>
        <mxCell id="uE-nzZvg4eH-x8scrcuT-4" value="`I=\int_{t_1}^{t_2} L(Q,\dot{Q}) dt`" style="text;html=1;align=center;verticalAlign=middle;whiteSpace=wrap;rounded=0;fontSize=24;" vertex="1" parent="1">
          <mxGeometry x="528" y="50" width="260" height="90" as="geometry" />
        </mxCell>
        <mxCell id="uE-nzZvg4eH-x8scrcuT-25" value="" style="rounded=1;whiteSpace=wrap;html=1;fillColor=#fff2cc;strokeColor=none;" vertex="1" parent="1">
          <mxGeometry x="215" y="178" width="155" height="45" as="geometry" />
        </mxCell>
        <mxCell id="uE-nzZvg4eH-x8scrcuT-24" value="" style="rounded=1;whiteSpace=wrap;html=1;fillColor=#fff2cc;strokeColor=none;" vertex="1" parent="1">
          <mxGeometry x="213" y="76" width="89" height="44" as="geometry" />
        </mxCell>
        <mxCell id="uE-nzZvg4eH-x8scrcuT-2" value="`I=\int_{t_1}^{t_2} (L(q,\dot{q}) + F)dt`" style="text;html=1;align=center;verticalAlign=middle;whiteSpace=wrap;rounded=0;fontSize=24;" vertex="1" parent="1">
          <mxGeometry x="88" y="50" width="320" height="90" as="geometry" />
        </mxCell>
        <mxCell id="uE-nzZvg4eH-x8scrcuT-3" value="`I=\int_{t_1}^{t_2} (p\dot{q} - H(q,p) + F)dt`" style="text;html=1;align=center;verticalAlign=middle;whiteSpace=wrap;rounded=0;fontSize=24;" vertex="1" parent="1">
          <mxGeometry x="88" y="160" width="390" height="80" as="geometry" />
        </mxCell>
        <mxCell id="uE-nzZvg4eH-x8scrcuT-6" value="" style="shape=curlyBracket;whiteSpace=wrap;html=1;rounded=1;labelPosition=left;verticalLabelPosition=middle;align=right;verticalAlign=middle;size=0.5;" vertex="1" parent="1">
          <mxGeometry x="128" y="330" width="30" height="140" as="geometry" />
        </mxCell>
        <mxCell id="uE-nzZvg4eH-x8scrcuT-7" value="`\dot{q} = \frac{\partial H}{\partial p}`" style="text;html=1;align=center;verticalAlign=middle;whiteSpace=wrap;rounded=0;fontSize=24;" vertex="1" parent="1">
          <mxGeometry x="158" y="310" width="120" height="85" as="geometry" />
        </mxCell>
        <mxCell id="uE-nzZvg4eH-x8scrcuT-8" value="`\dot{p} =- \frac{\partial H}{\partial q}`" style="text;html=1;align=center;verticalAlign=middle;whiteSpace=wrap;rounded=0;fontSize=24;" vertex="1" parent="1">
          <mxGeometry x="168" y="400" width="120" height="85" as="geometry" />
        </mxCell>
        <mxCell id="uE-nzZvg4eH-x8scrcuT-9" value="" style="shape=curlyBracket;whiteSpace=wrap;html=1;rounded=1;labelPosition=left;verticalLabelPosition=middle;align=right;verticalAlign=middle;size=0.5;" vertex="1" parent="1">
          <mxGeometry x="568" y="330" width="30" height="140" as="geometry" />
        </mxCell>
        <mxCell id="uE-nzZvg4eH-x8scrcuT-10" value="`\dot{Q} = \frac{\partial H}{\partial P}`" style="text;html=1;align=center;verticalAlign=middle;whiteSpace=wrap;rounded=0;fontSize=24;" vertex="1" parent="1">
          <mxGeometry x="598" y="310" width="120" height="85" as="geometry" />
        </mxCell>
        <mxCell id="uE-nzZvg4eH-x8scrcuT-11" value="`\dot{P} =- \frac{\partial H}{\partial Q}`" style="text;html=1;align=center;verticalAlign=middle;whiteSpace=wrap;rounded=0;fontSize=24;" vertex="1" parent="1">
          <mxGeometry x="608" y="400" width="120" height="85" as="geometry" />
        </mxCell>
        <mxCell id="uE-nzZvg4eH-x8scrcuT-12" value="" style="endArrow=classic;html=1;rounded=0;" edge="1" parent="1">
          <mxGeometry width="50" height="50" relative="1" as="geometry">
            <mxPoint x="88" y="200" as="sourcePoint" />
            <mxPoint x="118" y="400" as="targetPoint" />
            <Array as="points">
              <mxPoint x="48" y="200" />
              <mxPoint x="48" y="400" />
            </Array>
          </mxGeometry>
        </mxCell>
        <mxCell id="uE-nzZvg4eH-x8scrcuT-13" value="`\delta I = 0`" style="text;html=1;align=center;verticalAlign=middle;whiteSpace=wrap;rounded=0;fontSize=24;fillColor=default;strokeColor=default;" vertex="1" parent="1">
          <mxGeometry x="18" y="280" width="100" height="40" as="geometry" />
        </mxCell>
        <mxCell id="uE-nzZvg4eH-x8scrcuT-14" value="" style="endArrow=classic;html=1;rounded=0;" edge="1" parent="1">
          <mxGeometry width="50" height="50" relative="1" as="geometry">
            <mxPoint x="878" y="200" as="sourcePoint" />
            <mxPoint x="758" y="400" as="targetPoint" />
            <Array as="points">
              <mxPoint x="908" y="200" />
              <mxPoint x="908" y="400" />
            </Array>
          </mxGeometry>
        </mxCell>
        <mxCell id="uE-nzZvg4eH-x8scrcuT-15" value="`\delta I = 0`" style="text;html=1;align=center;verticalAlign=middle;whiteSpace=wrap;rounded=0;fontSize=24;fillColor=default;strokeColor=default;" vertex="1" parent="1">
          <mxGeometry x="838" y="270" width="100" height="40" as="geometry" />
        </mxCell>
        <mxCell id="uE-nzZvg4eH-x8scrcuT-16" value="" style="shape=flexArrow;endArrow=classic;startArrow=classic;html=1;rounded=0;fillColor=#FF0000;" edge="1" parent="1">
          <mxGeometry width="100" height="100" relative="1" as="geometry">
            <mxPoint x="318" y="400" as="sourcePoint" />
            <mxPoint x="518" y="400" as="targetPoint" />
          </mxGeometry>
        </mxCell>
        <mxCell id="uE-nzZvg4eH-x8scrcuT-17" value="`\frac{\partial Q}{\partial q}`" style="text;html=1;align=center;verticalAlign=middle;whiteSpace=wrap;rounded=0;fontSize=18;" vertex="1" parent="1">
          <mxGeometry x="318" y="240" width="120" height="85" as="geometry" />
        </mxCell>
        <mxCell id="uE-nzZvg4eH-x8scrcuT-18" value="`\frac{\partial Q}{\partial p}`" style="text;html=1;align=center;verticalAlign=middle;whiteSpace=wrap;rounded=0;fontSize=18;" vertex="1" parent="1">
          <mxGeometry x="378" y="240" width="120" height="85" as="geometry" />
        </mxCell>
        <mxCell id="uE-nzZvg4eH-x8scrcuT-19" value="`\frac{\partial P}{\partial q}`" style="text;html=1;align=center;verticalAlign=middle;whiteSpace=wrap;rounded=0;fontSize=18;" vertex="1" parent="1">
          <mxGeometry x="318" y="310" width="120" height="85" as="geometry" />
        </mxCell>
        <mxCell id="uE-nzZvg4eH-x8scrcuT-20" value="`\frac{\partial P}{\partial p}`" style="text;html=1;align=center;verticalAlign=middle;whiteSpace=wrap;rounded=0;fontSize=18;" vertex="1" parent="1">
          <mxGeometry x="378" y="310" width="120" height="85" as="geometry" />
        </mxCell>
        <mxCell id="uE-nzZvg4eH-x8scrcuT-21" value="" style="endArrow=none;html=1;rounded=0;strokeWidth=2;" edge="1" parent="1">
          <mxGeometry width="50" height="50" relative="1" as="geometry">
            <mxPoint x="348" y="380" as="sourcePoint" />
            <mxPoint x="348" y="250" as="targetPoint" />
          </mxGeometry>
        </mxCell>
        <mxCell id="uE-nzZvg4eH-x8scrcuT-22" value="" style="endArrow=none;html=1;rounded=0;strokeWidth=2;" edge="1" parent="1">
          <mxGeometry width="50" height="50" relative="1" as="geometry">
            <mxPoint x="468" y="380" as="sourcePoint" />
            <mxPoint x="468" y="250" as="targetPoint" />
          </mxGeometry>
        </mxCell>
        <mxCell id="uE-nzZvg4eH-x8scrcuT-23" value="`=1`" style="text;html=1;align=center;verticalAlign=middle;whiteSpace=wrap;rounded=0;fontSize=18;" vertex="1" parent="1">
          <mxGeometry x="478" y="300" width="50" height="35" as="geometry" />
        </mxCell>
      </root>
    </mxGraphModel>
  </diagram>
</mxfile>
